# Wavefront OBJ file
# Creator: Ultimate Unwrap3D Pro v3.26
# Website: http://www.unwrap3d.com
# Time: Thu Mar 31 18:26:37 2011
# num_vertices: 104
# num_vertex_normals: 104
# num_uvs: 388
# num_faces: 96
# num_groups: 1

mtllib BuildingB.mtl

v -125.670044 119.369995 -117.705078
v -125.670044 119.369995 117.704590
v -125.670044 125.803589 -117.705078
v -125.670044 125.803589 117.704590
v -125.630005 0.000000 -117.705078
v -125.630005 0.000000 98.294922
v -125.630005 85.620667 -117.705078
v -125.630005 85.620667 98.294922
v -125.630005 95.303070 -117.705078
v -125.630005 95.303070 98.294922
v -125.630005 114.456512 108.524902
v -125.630005 115.676300 98.294922
v -125.630005 117.472015 108.524902
v -125.630005 119.369995 -117.705078
v -125.630005 119.369995 98.294922
v -117.959839 119.369995 -117.705078
v -117.959839 119.369995 117.704590
v -117.959839 125.803589 -117.705078
v -117.959839 125.803589 117.704590
v -93.660034 0.000000 -117.705078
v -93.660034 0.000000 87.684570
v -93.660034 0.000000 98.294922
v -93.660034 85.620667 -117.705078
v -93.660034 85.620667 88.964844
v -93.660034 85.620667 89.034668
v -93.660034 85.620667 92.064941
v -93.660034 85.620667 98.294922
v -93.660034 95.303070 -117.705078
v -93.660034 95.303070 88.964844
v -93.660034 95.303070 89.034668
v -93.660034 95.303070 92.064941
v -93.660034 95.303070 98.294922
v -93.660034 114.456512 108.524902
v -93.660034 115.676300 98.294922
v -93.660034 117.472015 108.524902
v -93.660034 119.369995 -117.705078
v -93.660034 119.369995 98.294922
v -52.329956 0.000000 -117.705078
v -52.329956 0.000000 89.744629
v -52.329956 0.000000 98.294922
v -52.329956 37.780090 98.294922
v -52.329956 72.546021 98.294922
v -52.329956 85.620667 -117.705078
v -52.329956 85.620667 88.964844
v -52.329956 85.620667 89.034668
v -52.329956 85.620667 92.064941
v -52.329956 85.620667 98.294922
v -52.329956 95.303070 -117.705078
v -52.329956 95.303070 88.964844
v -52.329956 95.303070 89.034668
v -52.329956 95.303070 92.064941
v -52.329956 95.303070 98.294922
v -52.329956 114.456512 108.524902
v -52.329956 115.676300 98.294922
v -52.329956 117.472015 108.524902
v -52.329956 119.369995 -117.705078
v -52.329956 119.369995 98.294922
v -14.939941 0.000000 -117.705078
v -14.939941 0.000000 98.294922
v -14.939941 37.780090 91.564941
v -14.939941 37.780090 98.294922
v -14.939941 72.546021 91.564941
v -14.939941 72.546021 98.294922
v -14.939941 85.620667 -117.705078
v -14.939941 85.620667 98.294922
v -14.939941 95.303070 -117.705078
v -14.939941 95.303070 98.294922
v -14.939941 114.456512 108.524902
v -14.939941 115.676300 98.294922
v -14.939941 117.472015 108.524902
v -14.939941 119.369995 -117.705078
v -14.939941 119.369995 98.294922
v -14.789917 0.000000 90.984863
v 28.550049 0.000000 -117.705078
v 28.550049 0.000000 98.294922
v 28.550049 37.780090 91.564941
v 28.550049 37.780090 98.294922
v 28.550049 72.546021 91.564941
v 28.550049 72.546021 98.294922
v 28.550049 85.620667 -117.705078
v 28.550049 85.620667 98.294922
v 28.550049 95.303070 -117.705078
v 28.550049 95.303070 98.294922
v 28.550049 114.456512 108.524902
v 28.550049 115.676300 98.294922
v 28.550049 117.472015 108.524902
v 28.550049 119.369995 -117.705078
v 28.550049 119.369995 98.294922
v 28.660034 0.000000 93.164551
v 125.670044 0.000000 -117.705078
v 125.670044 0.000000 98.294922
v 125.670044 37.780090 -117.705078
v 125.670044 37.780090 98.294922
v 125.670044 72.546021 -117.705078
v 125.670044 72.546021 98.294922
v 125.670044 85.620667 -117.705078
v 125.670044 85.620667 98.294922
v 125.670044 95.303070 -117.705078
v 125.670044 95.303070 98.294922
v 125.670044 114.456512 108.524902
v 125.670044 115.676300 98.294922
v 125.670044 117.472015 108.524902
v 125.670044 119.369995 -117.705078
v 125.670044 119.369995 98.294922
# num_vertices: 104

vn -0.577350 -0.577350 -0.577350
vn -0.577350 -0.577350 0.577350
vn -0.577350 0.577350 -0.577350
vn -0.577350 0.577350 0.577350
vn -0.577350 -0.577350 -0.577350
vn -0.408248 -0.816497 0.408248
vn -0.707107 0.000000 -0.707107
vn -0.707107 0.000000 0.707107
vn -0.707107 0.000000 -0.707107
vn -0.707107 0.000000 0.707107
vn -0.601580 -0.597349 0.530354
vn -0.833102 -0.413621 0.367232
vn -0.545153 0.536005 0.644598
vn -0.577350 0.577350 -0.577350
vn -0.708595 0.702650 0.064630
vn 0.577350 -0.577350 -0.577350
vn 0.577350 -0.577350 0.577350
vn 0.577350 0.577350 -0.577350
vn 0.577350 0.577350 0.577350
vn 0.000000 -0.707107 -0.707107
vn 0.286569 -0.909492 0.301170
vn 0.577350 -0.577350 0.577350
vn 0.000000 0.000000 -1.000000
vn -0.577350 -0.577350 -0.577350
vn 0.698374 -0.005639 0.715711
vn -0.577350 -0.577350 0.577350
vn 0.707107 0.000000 0.707107
vn 0.000000 0.000000 -1.000000
vn -0.577350 0.577350 -0.577350
vn 0.577350 -0.577350 0.577350
vn -0.577350 0.577350 0.577350
vn 0.301511 -0.301511 0.904534
vn 0.000000 -0.747796 0.663929
vn 0.000000 -0.747796 0.663929
vn 0.000000 0.639368 0.768901
vn 0.000000 0.707107 -0.707107
vn 0.000000 0.995796 0.091594
vn 0.000000 -0.707107 -0.707107
vn -0.313764 -0.901367 0.298479
vn -0.577350 -0.577350 0.577350
vn -0.447214 0.000000 0.894427
vn -0.447214 0.000000 0.894427
vn 0.000000 0.000000 -1.000000
vn 0.577350 -0.577350 -0.577350
vn -0.715971 -0.005500 0.698108
vn 0.577350 -0.577350 0.577350
vn -0.707107 0.000000 0.707107
vn 0.000000 0.000000 -1.000000
vn 0.577350 0.577350 -0.577350
vn -0.577350 -0.577350 0.577350
vn 0.577350 0.577350 0.577350
vn -0.301511 -0.301511 0.904534
vn 0.000000 -0.747796 0.663929
vn 0.000000 -0.747796 0.663929
vn 0.000000 0.639368 0.768901
vn 0.000000 0.707107 -0.707107
vn 0.000000 0.995796 0.091594
vn 0.000000 -0.707107 -0.707107
vn 0.000000 -0.707107 0.707107
vn 0.577350 0.577350 0.577350
vn 0.301511 0.301511 0.904534
vn 0.577350 -0.577350 0.577350
vn 0.301511 -0.301511 0.904534
vn 0.000000 0.000000 -1.000000
vn 0.000000 0.000000 1.000000
vn 0.000000 0.000000 -1.000000
vn 0.000000 0.000000 1.000000
vn 0.000000 -0.747796 0.663929
vn 0.000000 -0.747796 0.663929
vn 0.000000 0.639368 0.768901
vn 0.000000 0.707107 -0.707107
vn 0.000000 0.995796 0.091594
vn 0.000000 -1.000000 0.000000
vn 0.000000 -0.707107 -0.707107
vn 0.000000 -0.707107 0.707107
vn -0.577350 0.577350 0.577350
vn -0.301511 0.301511 0.904534
vn -0.577350 -0.577350 0.577350
vn -0.301511 -0.301511 0.904534
vn 0.000000 0.000000 -1.000000
vn 0.000000 0.000000 1.000000
vn 0.000000 0.000000 -1.000000
vn 0.000000 0.000000 1.000000
vn 0.000000 -0.747796 0.663929
vn 0.000000 -0.747796 0.663929
vn 0.000000 0.639368 0.768901
vn 0.000000 0.707107 -0.707107
vn 0.000000 0.995796 0.091594
vn 0.000000 -1.000000 0.000000
vn 0.577350 -0.577350 -0.577350
vn 0.408248 -0.816497 0.408248
vn 0.894427 0.000000 -0.447214
vn 0.707107 0.000000 0.707107
vn 0.894427 0.000000 -0.447214
vn 0.707107 0.000000 0.707107
vn 0.707107 0.000000 -0.707107
vn 0.707107 0.000000 0.707107
vn 0.707107 0.000000 -0.707107
vn 0.707107 0.000000 0.707107
vn 0.601580 -0.597349 0.530354
vn 0.833102 -0.413621 0.367232
vn 0.545153 0.536005 0.644598
vn 0.577350 0.577350 -0.577350
vn 0.708595 0.702650 0.064630
# num_vertex_normals: 104

vt 0.142084 0.100983
vt 0.142084 0.116818
vt 0.422084 0.116818
vt 0.422084 0.100983
vt 0.422084 0.100599
vt 0.422084 0.119640
vt 0.142084 0.119640
vt 0.142084 0.100599
vt 0.422171 0.051530
vt 0.445497 0.051530
vt 0.445497 0.067537
vt 0.422171 0.067537
vt 0.142084 0.051745
vt 0.422084 0.051745
vt 0.422084 0.066873
vt 0.142084 0.066873
vt 0.422084 0.067580
vt 0.142084 0.067580
vt 0.142084 0.052451
vt 0.422084 0.052451
vt 0.468803 0.094205
vt 0.445476 0.094205
vt 0.445476 0.113672
vt 0.468803 0.113672
vt 0.510463 0.434530
vt 0.510415 0.416886
vt 0.842651 0.415873
vt 0.842699 0.433517
vt 0.510415 0.416886
vt 0.509991 0.270842
vt 0.842227 0.269830
vt 0.842651 0.415873
vt 0.510463 0.434530
vt 0.842699 0.433517
vt 0.842799 0.470642
vt 0.842818 0.477373
vt 0.510582 0.478386
vt 0.510155 0.439023
vt 0.510203 0.421379
vt 0.864112 0.420366
vt 0.864064 0.438010
vt 0.863945 0.481866
vt 0.510036 0.482879
vt 0.510054 0.476148
vt 0.510155 0.439023
vt 0.864064 0.438010
vt 0.507753 0.440201
vt 0.507705 0.422557
vt 0.569823 0.422408
vt 0.569871 0.440051
vt 0.507854 0.477326
vt 0.507753 0.440201
vt 0.569871 0.440051
vt 0.569972 0.477177
vt 0.507705 0.422557
vt 0.507281 0.265437
vt 0.569399 0.265287
vt 0.569823 0.422408
vt 0.040497 0.279703
vt 0.040497 0.295500
vt 0.092656 0.295500
vt 0.092656 0.279703
vt 0.040497 0.140011
vt 0.040497 0.279703
vt 0.092656 0.279703
vt 0.092656 0.140011
vt 0.040497 0.295500
vt 0.040497 0.334765
vt 0.092656 0.334765
vt 0.092656 0.295500
vt 0.066862 0.441294
vt 0.062373 0.166441
vt 0.112739 0.165904
vt 0.117228 0.440758
vt 0.062157 0.153210
vt 0.062094 0.149373
vt 0.112460 0.148836
vt 0.112523 0.152673
vt 0.000000 1.000000
vt 0.000000 1.000000
vt 0.000000 1.000000
vt 0.000000 1.000000
vt 0.569871 0.440051
vt 0.649435 0.439857
vt 0.649536 0.476983
vt 0.569972 0.477177
vt 0.782752 0.016724
vt 0.866045 0.016724
vt 0.866045 0.227857
vt 0.782752 0.227857
vt 0.092656 0.295500
vt 0.160088 0.295500
vt 0.160088 0.279703
vt 0.092656 0.279703
vt 0.092656 0.279703
vt 0.160088 0.279703
vt 0.160088 0.140011
vt 0.092656 0.140011
vt 0.092656 0.334765
vt 0.160088 0.334765
vt 0.160088 0.295500
vt 0.092656 0.295500
vt 0.112739 0.165904
vt 0.177852 0.165211
vt 0.182341 0.440064
vt 0.117228 0.440758
vt 0.112460 0.148836
vt 0.177573 0.148142
vt 0.177636 0.151980
vt 0.112523 0.152673
vt 0.570276 0.439843
vt 0.570276 0.421942
vt 0.586058 0.421942
vt 0.586058 0.439843
vt 0.649400 0.439018
vt 0.569070 0.439018
vt 0.569070 0.417955
vt 0.649400 0.417955
vt 0.570276 0.421942
vt 0.570276 0.264123
vt 0.588357 0.264123
vt 0.586058 0.421942
vt 0.649648 0.421335
vt 0.649648 0.439537
vt 0.629644 0.439537
vt 0.629644 0.421335
vt 0.514868 0.505235
vt 0.514774 0.505240
vt 0.514774 0.505707
vt 0.514868 0.505707
vt 0.514702 0.505216
vt 0.514774 0.505240
vt 0.514774 0.505216
vt 0.514702 0.505216
vt 0.514702 0.505707
vt 0.514774 0.505707
vt 0.514774 0.505240
vt 0.099452 0.184152
vt 0.099452 0.153788
vt 0.015410 0.143760
vt 0.015410 0.168549
vt 0.112739 0.165904
vt 0.062373 0.166441
vt 0.062157 0.153210
vt 0.112523 0.152673
vt 0.061880 0.136272
vt 0.112246 0.135735
vt 0.112460 0.148836
vt 0.062094 0.149373
vt 0.099452 0.153788
vt 0.099452 0.184152
vt 0.015410 0.168549
vt 0.015410 0.143760
vt 0.112246 0.135735
vt 0.177359 0.135041
vt 0.177573 0.148142
vt 0.112460 0.148836
vt 0.177852 0.165211
vt 0.112739 0.165904
vt 0.112523 0.152673
vt 0.177636 0.151980
vt 0.649387 0.422214
vt 0.721358 0.422038
vt 0.721406 0.439682
vt 0.649435 0.439857
vt 0.649435 0.439857
vt 0.721406 0.439682
vt 0.721507 0.476807
vt 0.649536 0.476983
vt 0.160088 0.295500
vt 0.221086 0.295500
vt 0.221086 0.279703
vt 0.160088 0.279703
vt 0.160088 0.279703
vt 0.221086 0.279703
vt 0.221086 0.140011
vt 0.160088 0.140011
vt 0.160088 0.334765
vt 0.221086 0.334765
vt 0.221086 0.295500
vt 0.160088 0.295500
vt 0.177852 0.165211
vt 0.236752 0.164583
vt 0.241241 0.439436
vt 0.182341 0.440064
vt 0.177573 0.148142
vt 0.236473 0.147515
vt 0.236536 0.151352
vt 0.177636 0.151980
vt 0.514868 0.505707
vt 0.514953 0.505707
vt 0.514954 0.505233
vt 0.514868 0.505235
vt 0.514953 0.505216
vt 0.514868 0.505216
vt 0.514868 0.505235
vt 0.514954 0.505233
vt 0.236752 0.164583
vt 0.177852 0.165211
vt 0.177636 0.151980
vt 0.236536 0.151352
vt 0.177359 0.135041
vt 0.236259 0.134414
vt 0.236473 0.147515
vt 0.177573 0.148142
vt 0.721358 0.422038
vt 0.805071 0.421834
vt 0.805119 0.439478
vt 0.721406 0.439682
vt 0.805071 0.421834
vt 0.987054 0.421379
vt 0.987102 0.439023
vt 0.805119 0.439478
vt 0.721406 0.439682
vt 0.805119 0.439478
vt 0.805220 0.476603
vt 0.721507 0.476807
vt 0.805119 0.439478
vt 0.987102 0.439023
vt 0.987203 0.476148
vt 0.805220 0.476603
vt 0.221086 0.295500
vt 0.292035 0.295500
vt 0.292035 0.279703
vt 0.221086 0.279703
vt 0.292035 0.295500
vt 0.450497 0.295500
vt 0.450497 0.279703
vt 0.292035 0.279703
vt 0.221086 0.279703
vt 0.292035 0.279703
vt 0.292035 0.140011
vt 0.221086 0.140011
vt 0.221086 0.334765
vt 0.292035 0.334765
vt 0.292035 0.295500
vt 0.221086 0.295500
vt 0.292035 0.334765
vt 0.450497 0.334765
vt 0.450497 0.295500
vt 0.292035 0.295500
vt 0.236752 0.164583
vt 0.305260 0.163853
vt 0.309749 0.438706
vt 0.241241 0.439436
vt 0.305260 0.163853
vt 0.458271 0.162223
vt 0.462760 0.437076
vt 0.309749 0.438706
vt 0.236473 0.147515
vt 0.304981 0.146785
vt 0.305044 0.150622
vt 0.236536 0.151352
vt 0.304981 0.146785
vt 0.457993 0.145155
vt 0.458055 0.148992
vt 0.305044 0.150622
vt 0.514953 0.505707
vt 0.515052 0.505707
vt 0.515052 0.505228
vt 0.514954 0.505233
vt 0.515052 0.505707
vt 0.515273 0.505707
vt 0.515273 0.505216
vt 0.515052 0.505228
vt 0.515273 0.505216
vt 0.515052 0.505216
vt 0.515052 0.505228
vt 0.515052 0.505216
vt 0.514953 0.505216
vt 0.514954 0.505233
vt 0.515052 0.505228
vt 0.458271 0.162223
vt 0.305260 0.163853
vt 0.305044 0.150622
vt 0.458055 0.148992
vt 0.305260 0.163853
vt 0.236752 0.164583
vt 0.236536 0.151352
vt 0.305044 0.150622
vt 0.236259 0.134414
vt 0.304767 0.133684
vt 0.304981 0.146785
vt 0.236473 0.147515
vt 0.304767 0.133684
vt 0.457779 0.132054
vt 0.457993 0.145155
vt 0.304981 0.146785
vt 0.510203 0.421379
vt 0.510268 0.397554
vt 0.864176 0.396541
vt 0.864112 0.420366
vt 0.721294 0.398213
vt 0.721358 0.422038
vt 0.649387 0.422214
vt 0.649322 0.398388
vt 0.805007 0.398009
vt 0.805071 0.421834
vt 0.721358 0.422038
vt 0.721294 0.398213
vt 0.986989 0.397554
vt 0.987054 0.421379
vt 0.805071 0.421834
vt 0.805007 0.398009
vt 0.510268 0.397554
vt 0.510440 0.333103
vt 0.864349 0.332090
vt 0.864176 0.396541
vt 0.510440 0.333103
vt 0.510627 0.264258
vt 0.864536 0.263245
vt 0.864349 0.332090
vt 0.649648 0.266673
vt 0.649648 0.333817
vt 0.649648 0.397613
vt 0.649648 0.421335
vt 0.629644 0.421335
vt 0.631171 0.266673
vt 0.648963 0.265093
vt 0.720934 0.264918
vt 0.721121 0.333763
vt 0.649150 0.333938
vt 0.721121 0.333763
vt 0.721294 0.398213
vt 0.649322 0.398388
vt 0.649150 0.333938
vt 0.720934 0.264918
vt 0.804647 0.264714
vt 0.804834 0.333559
vt 0.721121 0.333763
vt 0.125649 0.013542
vt 0.125649 0.120271
vt 0.001302 0.120271
vt 0.001302 0.013542
vt 0.804647 0.264714
vt 0.986630 0.264258
vt 0.986817 0.333103
vt 0.804834 0.333559
vt 0.986817 0.333103
vt 0.986989 0.397554
vt 0.805007 0.398009
vt 0.804834 0.333559
vt 0.292035 0.279703
vt 0.450497 0.279703
vt 0.450497 0.258371
vt 0.450497 0.201650
vt 0.450497 0.140011
vt 0.292035 0.140011
vt 0.805770 0.398272
vt 0.721199 0.398272
vt 0.721199 0.380925
vt 0.805770 0.380925
vt 0.721324 0.398224
vt 0.721324 0.333415
vt 0.736513 0.333415
vt 0.736513 0.398224
vt 0.805156 0.333657
vt 0.805156 0.397394
vt 0.787739 0.397394
vt 0.787739 0.333657
vt 0.721339 0.333579
vt 0.804991 0.333579
vt 0.804991 0.347083
vt 0.721339 0.347083
vt 0.000000 1.000000
vt 0.000000 1.000000
vt 0.000000 1.000000
vt 0.000000 1.000000
vt 0.237455 0.097446
vt 0.317902 0.098225
vt 0.317719 0.117071
vt 0.237272 0.116292
vt 0.237513 0.091418
vt 0.317960 0.092197
vt 0.317902 0.098225
vt 0.237455 0.097446
vt 0.000000 1.000000
vt 0.000000 1.000000
vt 0.000000 1.000000
vt 0.000000 1.000000
vt 0.000000 1.000000
vt 0.000000 1.000000
vt 0.000000 1.000000
vt 0.000000 1.000000
vt 0.000000 1.000000
vt 0.000000 1.000000
vt 0.000000 1.000000
vt 0.000000 1.000000
# num_uvs: 388

g BuildingB
s 1

usemtl ShantyTextureA
f 1/1/1 16/2/16 17/3/17 2/4/2 
f 4/5/4 19/6/19 18/7/18 3/8/3 
f 2/9/2 17/10/17 19/11/19 4/12/4 
f 1/13/1 2/14/2 4/15/4 3/16/3 
f 17/17/17 16/18/16 18/19/18 19/20/19 
f 16/21/16 1/22/1 3/23/3 18/24/18 
f 9/25/9 7/26/7 8/27/8 10/28/10 
f 7/29/7 5/30/5 6/31/6 8/32/8 
f 9/33/9 10/34/10 12/35/12 15/36/15 14/37/14 
f 99/38/99 97/39/97 96/40/96 98/41/98 
f 103/42/103 104/43/104 101/44/101 99/45/99 98/46/98 
f 10/47/10 8/48/8 27/49/27 32/50/32 
f 12/51/12 10/52/10 32/53/32 34/54/34 
f 8/55/8 6/56/6 22/57/22 27/58/27 
f 7/59/7 9/60/9 28/61/28 23/62/23 
f 5/63/5 7/64/7 23/65/23 20/66/20 
f 9/67/9 14/68/14 36/69/36 28/70/28 
f 14/71/14 15/72/15 37/73/37 36/74/36 
f 13/75/13 11/76/11 33/77/33 35/78/35 
f 25/79/25 45/80/45 50/81/50 30/82/30 
f 32/83/32 52/84/52 54/85/54 34/86/34 
f 21/87/21 39/88/39 45/89/45 25/90/25 
f 28/91/28 48/92/48 43/93/43 23/94/23 
f 23/95/23 43/96/43 38/97/38 20/98/20 
f 36/99/36 56/100/56 48/101/48 28/102/28 
f 37/103/37 57/104/57 56/105/56 36/106/36 
f 33/107/33 53/108/53 55/109/55 35/110/35 
f 32/111/32 27/112/27 25/113/25 30/114/30 
f 52/115/52 32/116/32 30/117/30 50/118/50 
f 27/119/27 22/120/22 21/121/21 25/122/25 
f 47/123/47 52/124/52 50/125/50 45/126/45 
f 39/127/39 21/128/21 20/129/20 38/130/38 
f 6/131/6 21/132/21 22/133/22 
f 6/134/6 5/135/5 20/136/20 21/137/21 
f 15/138/15 12/139/12 11/140/11 13/141/13 
f 37/142/37 15/143/15 13/144/13 35/145/35 
f 12/146/12 34/147/34 33/148/33 11/149/11 
f 101/150/101 104/151/104 102/152/102 100/153/100 
f 34/154/34 54/155/54 53/156/53 33/157/33 
f 57/158/57 37/159/37 35/160/35 55/161/55 
f 47/162/47 65/163/65 67/164/67 52/165/52 
f 52/166/52 67/167/67 69/168/69 54/169/54 
f 48/170/48 66/171/66 64/172/64 43/173/43 
f 43/174/43 64/175/64 58/176/58 38/177/38 
f 56/178/56 71/179/71 66/180/66 48/181/48 
f 57/182/57 72/183/72 71/184/71 56/185/56 
f 53/186/53 68/187/68 70/188/70 55/189/55 
f 38/190/38 58/191/58 73/192/73 39/193/39 
f 59/194/59 40/195/40 39/196/39 73/197/73 
f 72/198/72 57/199/57 55/200/55 70/201/70 
f 54/202/54 69/203/69 68/204/68 53/205/53 
f 65/206/65 81/207/81 83/208/83 67/209/67 
f 81/210/81 97/211/97 99/212/99 83/213/83 
f 67/214/67 83/215/83 85/216/85 69/217/69 
f 83/218/83 99/219/99 101/220/101 85/221/85 
f 66/222/66 82/223/82 80/224/80 64/225/64 
f 82/226/82 98/227/98 96/228/96 80/229/80 
f 64/230/64 80/231/80 74/232/74 58/233/58 
f 71/234/71 87/235/87 82/236/82 66/237/66 
f 87/238/87 103/239/103 98/240/98 82/241/82 
f 72/242/72 88/243/88 87/244/87 71/245/71 
f 88/246/88 104/247/104 103/248/103 87/249/87 
f 68/250/68 84/251/84 86/252/86 70/253/70 
f 84/254/84 100/255/100 102/256/102 86/257/86 
f 58/258/58 74/259/74 89/260/89 73/261/73 
f 74/262/74 90/263/90 91/264/91 89/265/89 
f 91/266/91 75/267/75 89/268/89 
f 75/269/75 59/270/59 73/271/73 89/272/89 
f 104/273/104 88/274/88 86/275/86 102/276/102 
f 88/277/88 72/278/72 70/279/70 86/280/86 
f 69/281/69 85/282/85 84/283/84 68/284/68 
f 85/285/85 101/286/101 100/287/100 84/288/84 
f 97/289/97 95/290/95 94/291/94 96/292/96 
f 63/293/63 65/294/65 47/295/47 42/296/42 
f 79/297/79 81/298/81 65/299/65 63/300/63 
f 95/301/95 97/302/97 81/303/81 79/304/79 
f 95/305/95 93/306/93 92/307/92 94/308/94 
f 93/309/93 91/310/91 90/311/90 92/312/92 
f 40/313/40 41/314/41 42/315/42 47/316/47 45/317/45 39/318/39 
f 40/319/40 59/320/59 61/321/61 41/322/41 
f 61/323/61 63/324/63 42/325/42 41/326/41 
f 59/327/59 75/328/75 77/329/77 61/330/61 
f 76/331/76 78/332/78 62/333/62 60/334/60 
f 75/335/75 91/336/91 93/337/93 77/338/77 
f 93/339/93 95/340/95 79/341/79 77/342/77 
f 80/343/80 96/344/96 94/345/94 92/346/92 90/347/90 74/348/74 
f 79/349/79 63/350/63 62/351/62 78/352/78 
f 63/353/63 61/354/61 60/355/60 62/356/62 
f 77/357/77 79/358/79 78/359/78 76/360/76 
f 61/361/61 77/362/77 76/363/76 60/364/60 
f 29/365/29 49/366/49 44/367/44 24/368/24 
f 26/369/26 46/370/46 51/371/51 31/372/31 
f 24/373/24 44/374/44 46/375/46 26/376/26 
f 29/377/29 24/378/24 26/379/26 31/380/31 
f 44/381/44 49/382/49 51/383/51 46/384/46 
f 49/385/49 29/386/29 31/387/31 51/388/51 
# num_faces: 96

