# Wavefront OBJ file
# Creator: Ultimate Unwrap3D Pro v3.18
# Time: Mon Sep 07 20:29:07 2009
# num_vertices: 144
# num_vertex_normals: 144
# num_uvs: 396
# num_faces: 132
# num_groups: 1

mtllib industrial30.mtl

v 31.899998 0.000000 -21.742249
v 31.899998 3.644882 -21.742249
v 31.899998 0.000000 16.223949
v 31.899998 3.644882 16.223949
v -31.899998 0.000000 16.223949
v -31.899998 3.644882 16.223949
v -31.899998 0.000000 -21.742249
v -31.899998 3.644882 -21.742249
v 31.899998 0.000000 21.742249
v 31.899998 3.644882 21.742249
v -31.899998 3.644882 21.742249
v -31.899998 0.000000 21.742249
v 31.899998 69.593658 -21.742249
v 31.899998 100.345062 -21.742249
v 31.899998 69.593658 16.223949
v 31.899998 100.345062 16.223949
v -31.899998 69.593658 -21.742249
v -31.899998 69.593658 16.223949
v -31.899998 100.345062 -21.742249
v -31.899998 100.345062 16.223949
v -11.307301 102.096764 -21.742249
v -31.899998 102.096764 -21.742249
v -11.307301 102.096764 16.223949
v -31.899998 102.096764 16.223949
v -11.307301 0.000000 -21.742249
v -11.307301 0.000000 16.223949
v -31.899998 0.000000 -21.742249
v -31.899998 0.000000 16.223949
v -31.899998 0.000000 -21.742249
v -31.899998 3.644882 -21.742249
v -11.307301 0.000000 -21.742249
v -11.307301 3.644882 -21.742249
v -11.307301 0.000000 21.742249
v -11.307301 3.644882 21.742249
v -31.899998 0.000000 21.742249
v -31.899998 3.644882 21.742249
v -11.307301 3.644882 21.742249
v -11.307301 3.644882 16.223949
v -31.899998 3.644882 21.742249
v -31.899998 3.644882 16.223949
v -31.899998 0.000000 21.742249
v -11.307301 0.000000 21.742249
v -11.307301 69.593658 -21.742249
v -31.899998 69.593658 -21.742249
v -11.307301 69.593658 -21.742249
v -31.899998 69.593658 -21.742249
v -11.307301 100.345062 -21.742249
v -31.899998 100.345062 -21.742249
v -11.307301 3.644882 16.223949
v -11.307301 69.593658 16.223949
v -31.899998 3.644882 16.223949
v -31.899998 69.593658 16.223949
v -11.307301 69.593658 18.106548
v -11.307301 100.345062 18.106548
v -31.899998 69.593658 18.106548
v -31.899998 100.345062 18.106548
v 13.178100 102.096764 -21.742249
v 13.178100 102.096764 16.223949
v 31.899998 102.096764 -21.742249
v 31.899998 102.096764 16.223949
v 13.178100 0.000000 -21.742249
v 31.899998 0.000000 -21.742249
v 13.178100 0.000000 16.223949
v 31.899998 0.000000 16.223949
v 13.178100 0.000000 -21.742249
v 13.178100 3.644882 -21.742249
v 31.899998 0.000000 -21.742249
v 31.899998 3.644882 -21.742249
v 31.899998 0.000000 21.742249
v 31.899998 3.644882 21.742249
v 13.178100 0.000000 21.742249
v 13.178100 3.644882 21.742249
v 31.899998 3.644882 21.742249
v 31.899998 3.644882 16.223949
v 13.178100 3.644882 21.742249
v 13.178100 3.644882 16.223949
v 13.178100 0.000000 21.742249
v 31.899998 0.000000 21.742249
v 13.178100 69.593658 -21.742249
v 31.899998 69.593658 -21.742249
v 13.178100 69.593658 -21.742249
v 13.178100 100.345062 -21.742249
v 31.899998 69.593658 -21.742249
v 31.899998 100.345062 -21.742249
v 13.178100 3.644882 16.223949
v 31.899998 3.644882 16.223949
v 13.178100 69.593658 16.223949
v 31.899998 69.593658 16.223949
v 13.178100 3.644882 18.106548
v 13.178100 69.593658 18.106548
v -11.307301 3.644882 18.106548
v 31.899998 69.593658 18.106548
v 13.178100 100.345062 18.106548
v 31.899998 100.345062 18.106548
v -31.899998 100.345062 18.106548
v -31.899998 69.593658 18.106548
v -11.307301 102.096764 18.106548
v -31.899998 102.096764 18.106548
v 31.899998 69.593658 18.106548
v 31.899998 100.345062 18.106548
v 31.899998 102.096764 18.106548
v 13.178100 102.096764 18.106548
v -31.899998 69.593658 18.106548
v -31.899998 69.593658 16.223949
v -11.307301 69.593658 18.106548
v -11.307301 69.593658 16.223949
v 13.178100 69.593658 18.106548
v 13.178100 69.593658 16.223949
v 31.899998 69.593658 18.106548
v 31.899998 69.593658 16.223949
v -11.307301 69.593658 18.106548
v -11.307301 69.593658 16.223949
v -11.307301 3.644882 18.106548
v -11.307301 3.644882 16.223949
v 13.178100 3.644882 18.106548
v 13.178100 3.644882 16.223949
v 13.178100 69.593658 18.106548
v 13.178100 69.593658 16.223949
v -31.899998 102.096764 -21.742249
v -31.899998 102.096764 16.223949
v -11.307301 102.096764 -21.742249
v -31.899998 102.096764 -21.742249
v 31.899998 102.096764 16.223949
v 31.899998 102.096764 -21.742249
v 31.899998 102.096764 -21.742249
v 13.178100 102.096764 -21.742249
v -31.899998 102.096764 18.106548
v 31.899998 102.096764 18.106548
v -31.899998 102.096764 21.136650
v -31.899998 100.345062 21.136650
v -11.307301 102.096764 21.136650
v -11.307301 100.345062 21.136650
v 13.178100 102.096764 21.136650
v 13.178100 100.345062 21.136650
v 31.899998 102.096764 21.136650
v 31.899998 100.345062 21.136650
v -31.899998 102.096764 21.136650
v -31.899998 100.345062 21.136650
v 31.899998 100.345062 21.136650
v 31.899998 102.096764 21.136650
v -11.307301 102.096764 21.136650
v -31.899998 102.096764 21.136650
v 31.899998 102.096764 21.136650
v 13.178100 102.096764 21.136650
# num_vertices: 144

vn 1.000000 0.000000 0.000000
vn 1.000000 0.000000 0.000000
vn 1.000000 0.000000 0.000000
vn 1.000000 0.000000 0.000000
vn -1.000000 0.000000 0.000000
vn -1.000000 0.000000 0.000000
vn -1.000000 0.000000 0.000000
vn -1.000000 0.000000 0.000000
vn 1.000000 0.000000 0.000000
vn 1.000000 0.000000 0.000000
vn -1.000000 0.000000 0.000000
vn -1.000000 0.000000 0.000000
vn 1.000000 0.000000 0.000000
vn 1.000000 0.000000 0.000000
vn 1.000000 0.000000 0.000000
vn 1.000000 0.000000 0.000000
vn -1.000000 0.000000 0.000000
vn -1.000000 0.000000 0.000000
vn -1.000000 0.000000 0.000000
vn -1.000000 0.000000 0.000000
vn 0.000000 1.000000 0.000000
vn 0.000000 1.000000 0.000000
vn 0.000000 1.000000 0.000000
vn 0.000000 1.000000 0.000000
vn 0.000000 -1.000000 0.000000
vn 0.000000 -1.000000 0.000000
vn 0.000000 -1.000000 0.000000
vn 0.000000 -1.000000 0.000000
vn 0.000000 0.000000 -1.000000
vn 0.000000 0.000000 -1.000000
vn 0.000000 0.000000 -1.000000
vn 0.000000 0.000000 -1.000000
vn 0.000000 0.000000 1.000000
vn 0.000000 0.000000 1.000000
vn 0.000000 0.000000 1.000000
vn 0.000000 0.000000 1.000000
vn 0.000000 1.000000 0.000000
vn 0.000000 1.000000 0.000000
vn 0.000000 1.000000 0.000000
vn 0.000000 1.000000 0.000000
vn 0.000000 -1.000000 0.000000
vn 0.000000 -1.000000 0.000000
vn 0.000000 0.000000 -1.000000
vn 0.000000 0.000000 -1.000000
vn 0.000000 0.000000 -1.000000
vn 0.000000 0.000000 -1.000000
vn 0.000000 0.000000 -1.000000
vn 0.000000 0.000000 -1.000000
vn 0.000000 -0.894427 0.447214
vn 0.000000 0.000000 1.000000
vn 0.000000 0.000000 1.000000
vn 0.000000 0.000000 1.000000
vn 0.000000 0.000000 1.000000
vn 0.000000 -0.707107 0.707107
vn 0.000000 0.000000 1.000000
vn 0.000000 -0.894427 0.447214
vn 0.000000 1.000000 0.000000
vn 0.000000 1.000000 0.000000
vn 0.000000 1.000000 0.000000
vn 0.000000 1.000000 0.000000
vn 0.000000 -1.000000 0.000000
vn 0.000000 -1.000000 0.000000
vn 0.000000 -1.000000 0.000000
vn 0.000000 -1.000000 0.000000
vn 0.000000 0.000000 -1.000000
vn 0.000000 0.000000 -1.000000
vn 0.000000 0.000000 -1.000000
vn 0.000000 0.000000 -1.000000
vn 0.000000 0.000000 1.000000
vn 0.000000 0.000000 1.000000
vn 0.000000 0.000000 1.000000
vn 0.000000 0.000000 1.000000
vn 0.000000 1.000000 0.000000
vn 0.000000 1.000000 0.000000
vn 0.000000 1.000000 0.000000
vn 0.000000 1.000000 0.000000
vn 0.000000 -1.000000 0.000000
vn 0.000000 -1.000000 0.000000
vn 0.000000 0.000000 -1.000000
vn 0.000000 0.000000 -1.000000
vn 0.000000 0.000000 -1.000000
vn 0.000000 0.000000 -1.000000
vn 0.000000 0.000000 -1.000000
vn 0.000000 0.000000 -1.000000
vn 0.000000 -0.707107 0.707107
vn 0.000000 0.000000 1.000000
vn 0.000000 0.000000 1.000000
vn 0.000000 0.000000 1.000000
vn 0.000000 -0.894427 0.447214
vn 0.000000 0.000000 1.000000
vn 0.000000 -0.447214 0.894427
vn 0.000000 0.000000 1.000000
vn 0.000000 -0.600000 0.800000
vn 0.000000 -0.707107 0.707107
vn -1.000000 0.000000 0.000000
vn -1.000000 0.000000 0.000000
vn 0.000000 1.000000 0.000000
vn 0.000000 1.000000 0.000000
vn 1.000000 0.000000 0.000000
vn 1.000000 0.000000 0.000000
vn 0.000000 1.000000 0.000000
vn 0.000000 1.000000 0.000000
vn 0.000000 -1.000000 0.000000
vn 0.000000 -1.000000 0.000000
vn 0.000000 -1.000000 0.000000
vn 0.000000 -1.000000 0.000000
vn 0.000000 -1.000000 0.000000
vn 0.000000 -1.000000 0.000000
vn 0.000000 -1.000000 0.000000
vn 0.000000 -1.000000 0.000000
vn -1.000000 0.000000 0.000000
vn -1.000000 0.000000 0.000000
vn -1.000000 0.000000 0.000000
vn -1.000000 0.000000 0.000000
vn 1.000000 0.000000 0.000000
vn 1.000000 0.000000 0.000000
vn 1.000000 0.000000 0.000000
vn 1.000000 0.000000 0.000000
vn -1.000000 0.000000 0.000000
vn -1.000000 0.000000 0.000000
vn 0.000000 0.000000 -1.000000
vn 0.000000 0.000000 -1.000000
vn 1.000000 0.000000 0.000000
vn 1.000000 0.000000 0.000000
vn 0.000000 0.000000 -1.000000
vn 0.000000 0.000000 -1.000000
vn -1.000000 0.000000 0.000000
vn 1.000000 0.000000 0.000000
vn 0.000000 0.000000 1.000000
vn 0.000000 -0.447214 0.894427
vn 0.000000 0.000000 1.000000
vn 0.000000 -0.707107 0.707107
vn 0.000000 0.000000 1.000000
vn 0.000000 -0.707107 0.707107
vn 0.000000 0.000000 1.000000
vn 0.000000 -0.894427 0.447214
vn -1.000000 0.000000 0.000000
vn -1.000000 0.000000 0.000000
vn 1.000000 0.000000 0.000000
vn 1.000000 0.000000 0.000000
vn 0.000000 1.000000 0.000000
vn 0.000000 1.000000 0.000000
vn 0.000000 1.000000 0.000000
vn 0.000000 1.000000 0.000000
# num_vertex_normals: 144

vt 0.775916 0.038135
vt 0.775916 0.065981
vt 0.586266 0.038135
vt 0.775916 0.065981
vt 0.586266 0.065981
vt 0.586266 0.038135
vt 0.586266 0.038135
vt 0.586266 0.065981
vt 0.775916 0.038135
vt 0.586266 0.065981
vt 0.775916 0.065981
vt 0.775916 0.038135
vt 0.558700 0.038135
vt 0.586266 0.038135
vt 0.558700 0.065981
vt 0.586266 0.038135
vt 0.586266 0.065981
vt 0.558700 0.065981
vt 0.558700 0.065981
vt 0.586266 0.065981
vt 0.558700 0.038135
vt 0.586266 0.065981
vt 0.586266 0.038135
vt 0.558700 0.038135
vt 0.775916 0.569817
vt 0.775916 0.804752
vt 0.586266 0.569817
vt 0.775916 0.804752
vt 0.586266 0.804752
vt 0.586266 0.569817
vt 0.775916 0.569817
vt 0.586266 0.569817
vt 0.775916 0.065981
vt 0.586266 0.569817
vt 0.586266 0.065981
vt 0.775916 0.065981
vt 0.775916 0.569817
vt 0.775916 0.065981
vt 0.586266 0.569817
vt 0.775916 0.065981
vt 0.586266 0.065981
vt 0.586266 0.569817
vt 0.775916 0.569817
vt 0.586266 0.569817
vt 0.775916 0.804752
vt 0.586266 0.569817
vt 0.586266 0.804752
vt 0.775916 0.804752
vt 0.351051 0.469654
vt 0.351051 0.594276
vt 0.193949 0.469654
vt 0.351051 0.594276
vt 0.193949 0.594276
vt 0.193949 0.469654
vt 0.767366 0.466737
vt 0.615441 0.466737
vt 0.767366 0.592133
vt 0.615441 0.466737
vt 0.615441 0.592133
vt 0.767366 0.592133
vt 0.165953 0.006793
vt 0.165953 0.042136
vt 0.363953 0.006793
vt 0.165953 0.042136
vt 0.363953 0.042136
vt 0.363953 0.006793
vt 0.363953 0.006793
vt 0.363953 0.042136
vt 0.165953 0.006793
vt 0.363953 0.042136
vt 0.165953 0.042136
vt 0.165953 0.006793
vt 0.593359 0.466737
vt 0.615441 0.466737
vt 0.593359 0.592133
vt 0.615441 0.466737
vt 0.615441 0.592133
vt 0.593359 0.592133
vt 0.593359 0.592133
vt 0.615441 0.592133
vt 0.593359 0.466737
vt 0.615441 0.592133
vt 0.615441 0.466737
vt 0.593359 0.466737
vt 0.363953 0.042136
vt 0.165953 0.042136
vt 0.363953 0.664478
vt 0.165953 0.042136
vt 0.165953 0.664478
vt 0.363953 0.664478
vt 0.594418 0.410729
vt 0.594418 0.571109
vt 0.755235 0.410729
vt 0.594418 0.571109
vt 0.755235 0.571109
vt 0.755235 0.410729
vt 0.363953 0.042136
vt 0.363953 0.664478
vt 0.165953 0.042136
vt 0.363953 0.664478
vt 0.165953 0.664478
vt 0.165953 0.042136
vt 0.363953 0.664478
vt 0.363953 0.979807
vt 0.165953 0.664478
vt 0.363953 0.979807
vt 0.165953 0.979807
vt 0.165953 0.664478
vt 0.351051 0.469654
vt 0.193949 0.469654
vt 0.351051 0.321474
vt 0.193949 0.469654
vt 0.193949 0.321474
vt 0.351051 0.321474
vt 0.351051 0.321474
vt 0.193949 0.321474
vt 0.351051 0.208174
vt 0.193949 0.321474
vt 0.193949 0.208174
vt 0.351051 0.208174
vt 0.767366 0.317637
vt 0.767366 0.203633
vt 0.615441 0.317637
vt 0.767366 0.203633
vt 0.615441 0.203633
vt 0.615441 0.317637
vt 0.767366 0.317637
vt 0.615441 0.317637
vt 0.767366 0.466737
vt 0.615441 0.317637
vt 0.615441 0.466737
vt 0.767366 0.466737
vt 0.363953 0.006793
vt 0.363953 0.042136
vt 0.601891 0.006793
vt 0.363953 0.042136
vt 0.601891 0.042136
vt 0.601891 0.006793
vt 0.601891 0.006793
vt 0.601891 0.042136
vt 0.797099 0.006793
vt 0.601891 0.042136
vt 0.797099 0.042136
vt 0.797099 0.006793
vt 0.797099 0.006793
vt 0.797099 0.042136
vt 0.601891 0.006793
vt 0.797099 0.042136
vt 0.601891 0.042136
vt 0.601891 0.006793
vt 0.601891 0.006793
vt 0.601891 0.042136
vt 0.363953 0.006793
vt 0.601891 0.042136
vt 0.363953 0.042136
vt 0.363953 0.006793
vt 0.593359 0.203633
vt 0.615441 0.203633
vt 0.593359 0.317637
vt 0.615441 0.203633
vt 0.615441 0.317637
vt 0.593359 0.317637
vt 0.593359 0.317637
vt 0.615441 0.317637
vt 0.593359 0.466737
vt 0.615441 0.317637
vt 0.615441 0.466737
vt 0.593359 0.466737
vt 0.593359 0.466737
vt 0.615441 0.466737
vt 0.593359 0.317637
vt 0.615441 0.466737
vt 0.615441 0.317637
vt 0.593359 0.317637
vt 0.593359 0.317637
vt 0.615441 0.317637
vt 0.593359 0.203633
vt 0.615441 0.317637
vt 0.615441 0.203633
vt 0.593359 0.203633
vt 0.363953 0.042136
vt 0.363953 0.664478
vt 0.601891 0.042136
vt 0.363953 0.664478
vt 0.601891 0.664478
vt 0.601891 0.042136
vt 0.601891 0.042136
vt 0.601891 0.664478
vt 0.797099 0.042136
vt 0.601891 0.664478
vt 0.797099 0.664478
vt 0.797099 0.042136
vt 0.594418 0.410729
vt 0.755235 0.410729
vt 0.594418 0.217999
vt 0.755235 0.410729
vt 0.755235 0.217999
vt 0.594418 0.217999
vt 0.594418 0.217999
vt 0.755235 0.217999
vt 0.594418 0.059881
vt 0.755235 0.217999
vt 0.755235 0.059881
vt 0.594418 0.059881
vt 0.601891 0.042136
vt 0.797099 0.042136
vt 0.601891 0.664478
vt 0.797099 0.042136
vt 0.797099 0.664478
vt 0.601891 0.664478
vt 0.601891 0.042136
vt 0.601891 0.664478
vt 0.363953 0.042136
vt 0.601891 0.664478
vt 0.363953 0.664478
vt 0.363953 0.042136
vt 0.601891 0.664478
vt 0.797099 0.664478
vt 0.601891 0.979807
vt 0.797099 0.664478
vt 0.797099 0.979807
vt 0.601891 0.979807
vt 0.601891 0.664478
vt 0.601891 0.979807
vt 0.363953 0.664478
vt 0.601891 0.979807
vt 0.363953 0.979807
vt 0.363953 0.664478
vt 0.576862 0.804752
vt 0.586266 0.804752
vt 0.576862 0.569817
vt 0.586266 0.804752
vt 0.586266 0.569817
vt 0.576862 0.569817
vt 0.186159 0.469654
vt 0.193949 0.469654
vt 0.186159 0.594276
vt 0.193949 0.469654
vt 0.193949 0.594276
vt 0.186159 0.594276
vt 0.576862 0.569817
vt 0.586266 0.569817
vt 0.576862 0.804752
vt 0.586266 0.569817
vt 0.586266 0.804752
vt 0.576862 0.804752
vt 0.186159 0.208174
vt 0.193949 0.208174
vt 0.186159 0.321474
vt 0.193949 0.208174
vt 0.193949 0.321474
vt 0.186159 0.321474
vt 0.196526 0.090170
vt 0.196526 0.106989
vt 0.380504 0.090170
vt 0.196526 0.106989
vt 0.380504 0.106989
vt 0.380504 0.090170
vt 0.599261 0.090170
vt 0.599261 0.106989
vt 0.766526 0.090170
vt 0.599261 0.106989
vt 0.766526 0.106989
vt 0.766526 0.090170
vt 0.222941 0.641878
vt 0.251487 0.641878
vt 0.222941 0.081878
vt 0.251487 0.641878
vt 0.251487 0.081878
vt 0.222941 0.081878
vt 0.363953 0.042136
vt 0.363953 0.042136
vt 0.601891 0.042136
vt 0.363953 0.042136
vt 0.601891 0.042136
vt 0.601891 0.042136
vt 0.186159 0.321474
vt 0.193949 0.321474
vt 0.186159 0.469654
vt 0.193949 0.321474
vt 0.193949 0.469654
vt 0.186159 0.469654
vt 0.222941 0.081878
vt 0.251487 0.081878
vt 0.222941 0.641878
vt 0.251487 0.081878
vt 0.251487 0.641878
vt 0.222941 0.641878
vt 0.775916 0.818134
vt 0.775916 0.804752
vt 0.586266 0.818134
vt 0.775916 0.804752
vt 0.586266 0.804752
vt 0.586266 0.818134
vt 0.763898 0.410729
vt 0.755235 0.410729
vt 0.763898 0.571109
vt 0.755235 0.410729
vt 0.755235 0.571109
vt 0.763898 0.571109
vt 0.586266 0.818134
vt 0.586266 0.804752
vt 0.775916 0.818134
vt 0.586266 0.804752
vt 0.775916 0.804752
vt 0.775916 0.818134
vt 0.763898 0.059881
vt 0.755235 0.059881
vt 0.763898 0.217999
vt 0.755235 0.059881
vt 0.755235 0.217999
vt 0.763898 0.217999
vt 0.586266 0.818134
vt 0.586266 0.804752
vt 0.576862 0.818134
vt 0.586266 0.804752
vt 0.576862 0.804752
vt 0.576862 0.818134
vt 0.576862 0.818134
vt 0.576862 0.804752
vt 0.586266 0.818134
vt 0.576862 0.804752
vt 0.586266 0.804752
vt 0.586266 0.818134
vt 0.763898 0.217999
vt 0.755235 0.217999
vt 0.763898 0.410729
vt 0.755235 0.217999
vt 0.755235 0.410729
vt 0.763898 0.410729
vt 0.165953 0.996792
vt 0.165953 0.979807
vt 0.363953 0.996792
vt 0.165953 0.979807
vt 0.363953 0.979807
vt 0.363953 0.996792
vt 0.363953 0.996792
vt 0.363953 0.979807
vt 0.601891 0.996792
vt 0.363953 0.979807
vt 0.601891 0.979807
vt 0.601891 0.996792
vt 0.601891 0.996792
vt 0.601891 0.979807
vt 0.797099 0.996792
vt 0.601891 0.979807
vt 0.797099 0.979807
vt 0.797099 0.996792
vt 0.165953 0.979807
vt 0.165953 0.979807
vt 0.363953 0.979807
vt 0.165953 0.979807
vt 0.363953 0.979807
vt 0.363953 0.979807
vt 0.561725 0.818134
vt 0.576862 0.818134
vt 0.561725 0.804752
vt 0.576862 0.818134
vt 0.576862 0.804752
vt 0.561725 0.804752
vt 0.363953 0.979807
vt 0.363953 0.979807
vt 0.601891 0.979807
vt 0.363953 0.979807
vt 0.601891 0.979807
vt 0.601891 0.979807
vt 0.601891 0.979807
vt 0.601891 0.979807
vt 0.797099 0.979807
vt 0.601891 0.979807
vt 0.797099 0.979807
vt 0.797099 0.979807
vt 0.561725 0.804752
vt 0.576862 0.804752
vt 0.561725 0.818134
vt 0.576862 0.804752
vt 0.576862 0.818134
vt 0.561725 0.818134
vt 0.173620 0.469654
vt 0.186159 0.469654
vt 0.173620 0.594276
vt 0.186159 0.469654
vt 0.186159 0.594276
vt 0.173620 0.594276
vt 0.173620 0.208174
vt 0.186159 0.208174
vt 0.173620 0.321474
vt 0.186159 0.208174
vt 0.186159 0.321474
vt 0.173620 0.321474
vt 0.173620 0.321474
vt 0.186159 0.321474
vt 0.173620 0.469654
vt 0.186159 0.321474
vt 0.186159 0.469654
vt 0.173620 0.469654
# num_uvs: 396

g industrial30
s 1

usemtl industrial22
f 1/1/1 2/2/2 3/3/3 
f 2/4/2 4/5/4 3/6/3 
f 5/7/5 6/8/6 7/9/7 
f 6/10/6 8/11/8 7/12/7 
f 9/13/9 3/14/3 10/15/10 
f 3/16/3 4/17/4 10/18/10 
f 11/19/11 6/20/6 12/21/12 
f 6/22/6 5/23/5 12/24/12 
f 13/25/13 14/26/14 15/27/15 
f 14/28/14 16/29/16 15/30/15 
f 13/31/13 15/32/15 2/33/2 
f 15/34/15 4/35/4 2/36/2 
f 17/37/17 8/38/8 18/39/18 
f 8/40/8 6/41/6 18/42/18 
f 17/43/17 18/44/18 19/45/19 
f 18/46/18 20/47/20 19/48/19 
f 21/49/21 22/50/22 23/51/23 
f 22/52/22 24/53/24 23/54/23 
f 25/55/25 26/56/26 27/57/27 
f 26/58/26 28/59/28 27/60/27 
f 29/61/29 30/62/30 31/63/31 
f 30/64/30 32/65/32 31/66/31 
f 33/67/33 34/68/34 35/69/35 
f 34/70/34 36/71/36 35/72/35 
f 37/73/37 38/74/38 39/75/39 
f 38/76/38 40/77/40 39/78/39 
f 41/79/41 28/80/28 42/81/42 
f 28/82/28 26/83/26 42/84/42 
f 32/85/32 30/86/30 43/87/43 
f 30/88/30 44/89/44 43/90/43 
f 45/91/45 46/92/46 47/93/47 
f 46/94/46 48/95/48 47/96/47 
f 49/97/49 50/98/50 51/99/51 
f 50/100/50 52/101/52 51/102/51 
f 53/103/53 54/104/54 55/105/55 
f 54/106/54 56/107/56 55/108/55 
f 21/109/21 23/110/23 57/111/57 
f 23/112/23 58/113/58 57/114/57 
f 57/115/57 58/116/58 59/117/59 
f 58/118/58 60/119/60 59/120/59 
f 61/121/61 62/122/62 63/123/63 
f 62/124/62 64/125/64 63/126/63 
f 61/127/61 63/128/63 25/129/25 
f 63/130/63 26/131/26 25/132/25 
f 31/133/31 32/134/32 65/135/65 
f 32/136/32 66/137/66 65/138/65 
f 65/139/65 66/140/66 67/141/67 
f 66/142/66 68/143/68 67/144/67 
f 69/145/69 70/146/70 71/147/71 
f 70/148/70 72/149/72 71/150/71 
f 71/151/71 72/152/72 33/153/33 
f 72/154/72 34/155/34 33/156/33 
f 73/157/73 74/158/74 75/159/75 
f 74/160/74 76/161/76 75/162/75 
f 75/163/75 76/164/76 37/165/37 
f 76/166/76 38/167/38 37/168/37 
f 42/169/42 26/170/26 77/171/77 
f 26/172/26 63/173/63 77/174/77 
f 77/175/77 63/176/63 78/177/78 
f 63/178/63 64/179/64 78/180/78 
f 32/181/32 43/182/43 66/183/66 
f 43/184/43 79/185/79 66/186/66 
f 66/187/66 79/188/79 68/189/68 
f 79/190/79 80/191/80 68/192/68 
f 45/193/45 47/194/47 81/195/81 
f 47/196/47 82/197/82 81/198/81 
f 81/199/81 82/200/82 83/201/83 
f 82/202/82 84/203/84 83/204/83 
f 85/205/85 86/206/86 87/207/87 
f 86/208/86 88/209/88 87/210/87 
f 89/211/89 90/212/90 91/213/91 
f 90/214/90 53/215/53 91/216/91 
f 90/217/90 92/218/92 93/219/93 
f 92/220/92 94/221/94 93/222/93 
f 90/223/90 93/224/93 53/225/53 
f 93/226/93 54/227/54 53/228/53 
f 95/229/95 20/230/20 96/231/96 
f 20/232/20 18/233/18 96/234/96 
f 97/235/97 23/236/23 98/237/98 
f 23/238/23 24/239/24 98/240/98 
f 99/241/99 15/242/15 100/243/100 
f 15/244/15 16/245/16 100/246/100 
f 101/247/101 60/248/60 102/249/102 
f 60/250/60 58/251/58 102/252/102 
f 103/253/103 104/254/104 105/255/105 
f 104/256/104 106/257/106 105/258/105 
f 107/259/107 108/260/108 109/261/109 
f 108/262/108 110/263/110 109/264/109 
f 111/265/111 112/266/112 113/267/113 
f 112/268/112 114/269/114 113/270/113 
f 91/271/91 49/272/49 89/273/89 
f 49/274/49 85/275/85 89/276/89 
f 102/277/102 58/278/58 97/279/97 
f 58/280/58 23/281/23 97/282/97 
f 115/283/115 116/284/116 117/285/117 
f 116/286/116 118/287/118 117/288/117 
f 119/289/119 19/290/19 120/291/120 
f 19/292/19 20/293/20 120/294/120 
f 121/295/121 47/296/47 122/297/122 
f 47/298/47 48/299/48 122/300/122 
f 123/301/123 16/302/16 124/303/124 
f 16/304/16 14/305/14 124/306/124 
f 125/307/125 84/308/84 126/309/126 
f 84/310/84 82/311/82 126/312/126 
f 120/313/120 20/314/20 127/315/127 
f 20/316/20 95/317/95 127/318/127 
f 128/319/128 100/320/100 123/321/123 
f 100/322/100 16/323/16 123/324/123 
f 126/325/126 82/326/82 121/327/121 
f 82/328/82 47/329/47 121/330/121 
f 129/331/129 130/332/130 131/333/131 
f 130/334/130 132/335/132 131/336/131 
f 131/337/131 132/338/132 133/339/133 
f 132/340/132 134/341/134 133/342/133 
f 133/343/133 134/344/134 135/345/135 
f 134/346/134 136/347/136 135/348/135 
f 130/349/130 56/350/56 132/351/132 
f 56/352/56 54/353/54 132/354/132 
f 137/355/137 127/356/127 138/357/138 
f 127/358/127 95/359/95 138/360/138 
f 132/361/132 54/362/54 134/363/134 
f 54/364/54 93/365/93 134/366/134 
f 134/367/134 93/368/93 136/369/136 
f 93/370/93 94/371/94 136/372/136 
f 139/373/139 100/374/100 140/375/140 
f 100/376/100 128/377/128 140/378/140 
f 141/379/141 97/380/97 142/381/142 
f 97/382/97 98/383/98 142/384/142 
f 143/385/143 101/386/101 144/387/144 
f 101/388/101 102/389/102 144/390/144 
f 144/391/144 102/392/102 141/393/141 
f 102/394/102 97/395/97 141/396/141 
# num_faces: 132

